HIERARCHY
ROOT Hips
{
	OFFSET 0.00000 0.00000 0.00000
	CHANNELS 6 Xposition Yposition Zposition Zrotation Yrotation Xrotation 
	JOINT LHipJoint
	{
		OFFSET 0 0 0
		CHANNELS 3 Zrotation Yrotation Xrotation
		JOINT LeftUpLeg
		{
			OFFSET 1.41496 -1.84582 0.78394
			CHANNELS 3 Zrotation Yrotation Xrotation
			JOINT LeftLeg
			{
				OFFSET 2.58040 -7.08960 0.00000
				CHANNELS 3 Zrotation Yrotation Xrotation
				JOINT LeftFoot
				{
					OFFSET 2.64719 -7.27309 0.00000
					CHANNELS 3 Zrotation Yrotation Xrotation
					JOINT LeftToeBase
					{
						OFFSET 0.20718 -0.56921 2.20259
						CHANNELS 3 Zrotation Yrotation Xrotation
						End Site
						{
							OFFSET 0.00000 -0.00000 1.14243
						}
					}
				}
			}
		}
	}
	JOINT RHipJoint
	{
		OFFSET 0 0 0
		CHANNELS 3 Zrotation Yrotation Xrotation
		JOINT RightUpLeg
		{
			OFFSET -1.40551 -1.84582 0.78394
			CHANNELS 3 Zrotation Yrotation Xrotation
			JOINT RightLeg
			{
				OFFSET -2.56572 -7.04926 0.00000
				CHANNELS 3 Zrotation Yrotation Xrotation
				JOINT RightFoot
				{
					OFFSET -2.57974 -7.08778 0.00000
					CHANNELS 3 Zrotation Yrotation Xrotation
					JOINT RightToeBase
					{
						OFFSET -0.26704 -0.73369 2.20815
						CHANNELS 3 Zrotation Yrotation Xrotation
						End Site
						{
							OFFSET -0.00000 -0.00000 1.16246
						}
					}
				}
			}
		}
	}
	JOINT LowerBack
	{
		OFFSET 0 0 0
		CHANNELS 3 Zrotation Yrotation Xrotation
		JOINT Spine
		{
			OFFSET -0.04690 2.05196 -0.07017
			CHANNELS 3 Zrotation Yrotation Xrotation
			JOINT Spine1
			{
				OFFSET 0.04085 2.05260 0.00800
				CHANNELS 3 Zrotation Yrotation Xrotation
				JOINT Neck
				{
					OFFSET 0 0 0
					CHANNELS 3 Zrotation Yrotation Xrotation
					JOINT Neck1
					{
						OFFSET -0.03582 1.80995 0.19301
						CHANNELS 3 Zrotation Yrotation Xrotation
						JOINT Head
						{
							OFFSET 0.00952 1.80195 -0.36389
							CHANNELS 3 Zrotation Yrotation Xrotation
							End Site
							{
								OFFSET 0.00392 1.85062 -0.14494
							}
						}
					}
				}
				JOINT LeftShoulder
				{
					OFFSET 0 0 0
					CHANNELS 3 Zrotation Yrotation Xrotation
					JOINT LeftArm
					{
						OFFSET 3.55224 1.39726 -0.13667
						CHANNELS 3 Zrotation Yrotation Xrotation
						JOINT LeftForeArm
						{
							OFFSET 5.14507 -0.00000 -0.00000
							CHANNELS 3 Zrotation Yrotation Xrotation
							JOINT LeftHand
							{
								OFFSET 3.50646 -0.00000 0.00000
								CHANNELS 3 Zrotation Yrotation Xrotation
								JOINT LeftFingerBase
								{
									OFFSET 0 0 0
									CHANNELS 3 Zrotation Yrotation Xrotation
									JOINT LeftHandIndex1
									{
										OFFSET 0.62997 -0.00000 0.00000
										CHANNELS 3 Zrotation Yrotation Xrotation
										End Site
										{
											OFFSET 0.50790 -0.00000 0.00000
										}
									}
								}
								JOINT LThumb
								{
									OFFSET 0 0 0
									CHANNELS 3 Zrotation Yrotation Xrotation
									End Site
									{
										OFFSET 0.51565 -0.00000 0.51565
									}
								}
							}
						}
					}
				}
				JOINT RightShoulder
				{
					OFFSET 0 0 0
					CHANNELS 3 Zrotation Yrotation Xrotation
					JOINT RightArm
					{
						OFFSET -3.06467 1.61290 -0.28813
						CHANNELS 3 Zrotation Yrotation Xrotation
						JOINT RightForeArm
						{
							OFFSET -5.23200 -0.00000 -0.00000
							CHANNELS 3 Zrotation Yrotation Xrotation
							JOINT RightHand
							{
								OFFSET -3.65641 -0.00000 0.00000
								CHANNELS 3 Zrotation Yrotation Xrotation
								JOINT RightFingerBase
								{
									OFFSET 0 0 0
									CHANNELS 3 Zrotation Yrotation Xrotation
									JOINT RightHandIndex1
									{
										OFFSET -0.65681 -0.00000 0.00000
										CHANNELS 3 Zrotation Yrotation Xrotation
										End Site
										{
											OFFSET -0.52953 -0.00000 0.00000
										}
									}
								}
								JOINT RThumb
								{
									OFFSET 0 0 0
									CHANNELS 3 Zrotation Yrotation Xrotation
									End Site
									{
										OFFSET -0.53762 -0.00000 0.53762
									}
								}
							}
						}
					}
				}
			}
		}
	}
}
MOTION
Frames: 5
Frame Time: 0.0465116
0.00 0.00 0.00 -4.0237 -3.4377 10.9179 0.0000 0.0000 0.0000 -3.1088 -17.2469 -76.8044 15.2416 19.4483 75.9634 0.1831 -15.4489 -12.7252 0.8233 -5.7894 -16.1746 0.0000 0.0000 0.0000 27.8541 -3.5591 7.9819 -0.3508 -3.8055 10.5300 -0.8754 -16.9592 19.1759 -0.8446 5.8620 -16.3846 4.3929 2.8178 14.5916 1.2396 4.6337 -1.0638 -2.1606 2.0420 -9.1050 -3.3245 -2.5467 -18.8112 -0.0905 -2.5698 8.5109 0.2421 -1.3738 5.6485 0.0000 0.0000 0.0000 -79.0295 47.2724 46.7234 123.6594 -55.2532 -88.6853 -0.0000 0.0000 -17.2358 22.2848 -16.4257 -6.6103 -7.1250 0.0000 -0.0000 -3.6574 12.3351 2.7975 0.0000 0.0000 0.0000 82.5053 -12.3957 47.7339 -136.8819 49.8125 -99.2091 0.0000 -0.0000 -4.7478 -24.5963 13.6239 -6.1541 7.1250 -0.0000 -0.0000 1.9124 -15.0602 1.3506
0.00 0.00 0.00 -5.5143 -3.1691 10.1447 0.0000 0.0000 0.0000 -5.5634 -16.2241 -69.0527 9.6813 17.2267 58.4178 0.0178 -13.3565 -9.5942 0.8612 -5.9177 -16.5458 0.0000 0.0000 0.0000 28.6552 -3.4560 3.8108 -1.6680 -8.1373 23.1318 -0.7110 -14.9031 17.1167 -0.5572 4.7813 -13.2858 5.5762 2.8484 14.5778 1.6933 4.9168 -0.9685 -2.3881 2.1398 -8.9224 -3.9264 -2.8072 -19.5467 0.1746 -2.7620 9.8319 0.3852 -1.4784 6.2055 -0.0000 -0.0000 0.0000 -84.2452 45.9750 41.4840 119.5188 -56.4368 -85.2583 -0.0000 0.0000 -15.3563 21.0129 -16.1020 -6.0811 -7.1250 0.0000 -0.0000 -4.4873 12.8354 3.3889 -0.0000 -0.0000 0.0000 83.0643 -14.9652 46.7734 -129.9054 53.0336 -93.7503 0.0000 -0.0000 -6.9204 -23.7248 11.4276 -4.9765 7.1250 -0.0000 -0.0000 2.3904 -17.5355 1.5605
0.00 0.00 0.00 -6.0826 -4.0907 8.1486 0.0000 0.0000 0.0000 -8.5943 -13.9213 -59.3280 6.9210 15.2650 48.5750 -0.0487 -12.5736 -8.1598 0.9789 -6.2983 -17.6525 0.0000 0.0000 0.0000 28.3272 -2.8059 -2.3807 -5.1178 -13.5152 41.3290 0.0873 -15.6950 10.0729 -0.4363 4.2388 -11.7495 5.0837 2.8839 15.2498 2.0357 4.9115 -0.2516 -1.7664 2.1876 -8.5915 -3.9168 -2.6060 -19.5552 0.4178 -2.5296 10.0547 0.4863 -1.3466 6.2774 0.0000 0.0000 0.0000 -87.9794 41.8835 39.5506 116.1368 -57.2545 -82.4265 -0.0000 0.0000 -14.9581 20.6323 -15.7159 -5.8233 -7.1250 0.0000 -0.0000 -4.7222 13.2870 3.5227 0.0000 0.0000 0.0000 83.9530 -17.3297 45.2789 -117.4875 56.9431 -83.5606 0.0000 -0.0000 -6.0865 -22.3497 9.9904 -4.0798 7.1250 -0.0000 -0.0000 3.3049 -19.2060 2.0371
0.00 0.00 0.00 -4.4580 -4.1067 5.6499 0.0000 0.0000 0.0000 -13.1486 -12.7981 -49.4466 6.1618 14.5833 45.6276 -0.1207 -12.4409 -7.0008 0.8022 -5.7163 -15.9635 0.0000 0.0000 0.0000 25.2890 -3.2082 -9.4947 -9.7503 -17.2670 58.6505 0.6633 -16.6848 3.1470 -0.2818 3.4139 -9.4333 3.0889 2.3253 15.8757 1.4579 3.7663 0.3636 -1.0376 1.7176 -8.4237 -3.4116 -2.1770 -18.9981 1.0398 -2.2036 10.6221 0.6452 -1.1195 6.3651 -0.0000 0.0000 0.0000 -88.7309 36.4076 41.1947 115.0117 -57.4990 -81.4789 -0.0000 0.0000 -16.5543 19.7364 -15.5934 -5.5086 -7.1250 0.0000 -0.0000 -5.3187 13.5165 3.9457 -0.0000 0.0000 0.0000 85.3281 -19.5521 43.4800 -99.0533 59.6880 -67.8322 0.0000 -0.0000 -4.7362 -22.8305 9.4310 -3.9462 7.1250 -0.0000 -0.0000 2.9454 -19.7703 1.7778
0.00 0.00 0.00 -0.2709 -1.0255 3.9838 0.0000 0.0000 0.0000 -20.0642 -14.2230 -40.8186 6.9965 15.3289 48.8610 -0.0747 -12.5196 -7.7493 0.1134 -2.1712 -5.9791 0.0000 0.0000 0.0000 18.8938 -5.0356 -21.4123 -15.2595 -19.4525 76.0170 0.6318 -13.9159 -5.0277 -0.3501 3.8018 -10.5198 -0.6350 0.6603 16.5062 -0.1072 0.7423 0.1660 0.0666 0.3807 -9.1112 -2.9671 -1.7348 -18.8977 2.0781 -1.9122 12.5971 0.9415 -0.8714 6.9902 -0.0000 0.0000 0.0000 -86.6829 28.0202 46.1377 116.3024 -57.2173 -82.5658 -0.0000 0.0000 -15.2725 19.6147 -15.3459 -5.3878 -7.1250 0.0000 -0.0000 -5.3902 13.7890 3.9681 -0.0000 0.0000 0.0000 87.2952 -22.9307 40.1262 -75.4275 59.1822 -47.4145 0.0000 -0.0000 -5.8655 -23.4245 8.9843 -3.8706 7.1250 -0.0000 -0.0000 2.5062 -20.2079 1.4876
